#!OML:ASF E:/inclinewalkrobotboard/Project1/Captureday1/Session1/subject1.ASF
:FULLY-SPECIFIED
:DEGREES
1
root 0 0 0 -2.025234431195891 -5.630184522517789 -6.562024996151089
lowerback 11.260530269143915 1.9821203674631023 5.674712566459286
upperback 0.5939109787763963 3.4353428106689794 2.007758604968819
thorax -5.478069047684117 1.5796493991949192 -1.5931143761548316
lowerneck -16.88628798128201 -3.6597705334814794 -1.6132923220785327
upperneck 19.33942677618939 -4.738850100694605 0.7153881773226365
head 8.963023303010612 -2.2747755670594403 -0.0906098766341687
rclavicle 2.3576267354619067E-15 -1.1480392182696537E-15
rhumerus -28.87534976573869 -18.93577976016087 -77.6230340751808
rradius 28.191247276385088
rwrist 1.3641004060619624
rhand -18.932469568899215 24.30979706244824
rfingers 7.125020000000019
rthumb 7.372372045941767 -5.577374398693248
lclavicle -6.690408304866838E-16 -1.1514427145046586E-15
lhumerus -36.1494597325949 3.5873074778116623 82.87141295444243
lradius 24.248332239253756
lwrist 4.313170819059478
lhand -26.790867591160044 24.29910306167963
lfingers 7.125020000000021
lthumb -0.20889510192686878 54.299133796653344
rfemur 10.607251782180114 7.116092796589626 33.607237040954864
rtibia 31.937070453596274
rfoot -16.752472383389904 -3.11720847614788
rtoes -3.997693196243829
lfemur -25.426244860289852 -4.063370388949331 -12.48497236555999
ltibia 21.383384381733933
lfoot -5.227180507835387 3.579041534616505
ltoes -1.128375760258706
2
root 0 0 0 -2.142763714834668 -5.355859994022085 -5.465321385253795
lowerback 11.106555371988296 2.0733760585839405 4.782892133251069
upperback 0.4560758822590607 3.4282498270476296 1.6167230912945347
thorax -5.549431880503119 1.591513973505653 -1.5011374075606914
lowerneck -16.34388229163455 -3.6207349052455093 -1.3712274864030582
upperneck 19.575188484471227 -4.783749635964638 0.8779267799816288
head 8.999651237262414 -2.2559989169909653 -0.07174463913402823
rclavicle 1.995892311092078E-15 -1.9925418372409885E-15
rhumerus -29.41869692594917 -20.12907365032261 -77.10410225644885
rradius 27.82705260866673
rwrist 1.6717582299100568
rhand -18.953871631892937 23.916247018811724
rfingers 7.12502000000002
rthumb 7.351913624223432 -5.984526108339569
lclavicle -1.3472077496535817E-15 -2.376667933385162E-15
lhumerus -36.601643878935 5.428434067079244 82.15580144652746
lradius 22.731233660230235
lwrist 3.2387787632900187
lhand -26.432403741404613 24.193129207284244
lfingers 7.125020000000022
lthumb 0.1367331659891935 54.19620621100475
rfemur 2.253346732059634 4.339183822219155 26.515402891257928
rtibia 39.66474705826714
rfoot -5.15340509091645 -1.0232603031143368
rtoes -1.7585121551548497
lfemur -23.115172089567334 -3.178735103917856 -16.18482664099092
ltibia 24.461093603705088
lfoot -4.645930673391517 0.8422006422219614
ltoes 3.09290122376909
3
root 0 0 0 -2.4784081484831306 -5.222783168304936 -3.401111796370939
lowerback 10.672549336468414 2.135122412303331 3.104616577448911
upperback 0.3412249660467527 3.2745939320781776 1.0656872748674129
thorax -5.463262649431071 1.5519739899511111 -1.1108613739415514
lowerneck -16.159151906756247 -3.531269278859109 -1.4283748939732668
upperneck 20.62374700745648 -4.705162830842308 1.0196145934125689
head 9.331322506355647 -2.1984752962192498 -0.01052309902800952
rclavicle 2.3987849498840487E-15 -2.6766187454351944E-15
rhumerus -30.147957607310968 -21.38539272669412 -76.68287365957228
rradius 27.13740714653904
rwrist 2.226635505990587
rhand -18.860217662521933 23.50161923278876
rfingers 7.1250200000000214
rthumb 7.44176332195659 -6.398036832307049
lclavicle -8.137174354858757E-16 -3.2094621124328205E-15
lhumerus -36.82546173451335 6.78793708680002 81.52289396223381
lradius 21.748740991290894
lwrist 2.5651970703230162
lhand -26.15946414861239 24.175916338925227
lfingers 7.125020000000025
lthumb 0.40129728306101775 54.17747223256368
rfemur -4.92664967420698 3.2511652156374167 26.974260013976256
rtibia 66.23068774422326
rfoot 12.267240343871226 -1.2561257797622898
rtoes 13.96439814782434
lfemur -19.818780645036917 -2.1703482202509172 -20.742039131630417
ltibia 28.196123264015906
lfoot -4.199955780734983 -2.2265418282349985
ltoes 8.174171087439277
4
root 0 0 0 -3.748608243525952 -4.63519142334173 -0.515652886312755
lowerback 10.33479928995371 1.7356872176236857 0.2620122762381817
upperback 0.19713384178906773 2.370590661423026 0.5951793429778786
thorax -5.542162782218915 1.1730690297545987 0.1263785412247343
lowerneck -16.081567604981075 -3.1242922842068097 -1.519179825188333
upperneck 21.767103852413037 -4.144744222653017 0.9555100360541818
head 9.687988236981633 -1.9436915176970353 0.04449382776093369
rclavicle 2.5639589699125928E-15 -2.0158957334951664E-15
rhumerus -30.924023020285496 -22.325109827086038 -76.54826715300241
rradius 26.318493222515315
rwrist 2.826046780329281
rhand -18.758036253604907 23.188852748909575
rfingers 7.1250200000000214
rthumb 7.540345952939532 -6.705191741154696
lclavicle -4.197444472987015E-16 -2.508673934573292E-15
lhumerus -36.5246955044781 6.963595450258375 81.36840308132935
lradius 21.62487339557316
lwrist 2.684889923861401
lhand -26.308345263397275 23.870130377465575
lfingers 7.125020000000026
lthumb 0.260512199008498 53.86706144112047
rfemur -7.6870940755130235 2.88714625019344 28.44469254515635
rtibia 73.87553025703636
rfoot 13.551132130376367 -2.2152291857457933
rtoes 18.187922801531435
lfemur -17.513518760100276 -2.2521866194705384 -21.766738164406842
ltibia 28.687805179347055
lfoot -5.316276271782115 -2.1255656903299394
ltoes 7.584607263832275
5
root 0 0 0 -4.996157961558472 -4.034955557810523 0.7819356027692215
lowerback 10.859229195761152 1.1798659156735383 -1.1914017522847213
upperback 0.6109337463512856 1.4552831591989026 0.532521101650796
thorax -5.485020270749005 0.7521118427548963 1.015469357542399
lowerneck -16.56159319182745 -2.8317292081020726 -1.769835792176412
upperneck 21.844214677255994 -3.6614914330776136 0.6029196090977182
head 9.741725139493767 -1.7520755962425658 0.011203098292653979
rclavicle 2.1704861700101193E-15 -5.531406988114642E-16
rhumerus -31.901509753155686 -23.19614743718282 -76.65491056386628
rradius 25.154953350607073
rwrist 3.676396598310949
rhand -18.567142936571038 22.896443100274574
rfingers 7.125020000000021
rthumb 7.724733646150626 -6.99194276792873
lclavicle -3.1874403102991633E-16 -7.424921902005952E-16
lhumerus -36.215184597046424 6.827691720347578 81.28212730615577
lradius 21.69875750073438
lwrist 2.789891805479384
lhand -26.39894402219709 23.97683451201473
lfingers 7.1250200000000286
lthumb 0.17526939036642997 53.97118504332721
rfemur -15.283202750977935 0.07168167678824888 26.064004202367
rtibia 84.94874905937442
rfoot 8.416426999110305 -5.352711304976798
rtoes 14.681680009363475
lfemur -10.869593106714111 -2.7856568374560946 -23.591668072722364
ltibia 28.218281959887104
lfoot -10.038964986576428 -0.7171271868046571
ltoes 1.391541525239571
6
root 0 0 0 -5.303752990715751 -3.41093085390897 1.1999532629605016
lowerback 11.442446193488538 0.7519554529050922 -1.801492207378111
upperback 0.9218526698105685 0.8243707405114358 0.5850418110000367
thorax -5.5311496414655545 0.45735856620003396 1.503699940521479
lowerneck -16.70605701969044 -2.6788844401983405 -2.0131204299664707
upperneck 20.65262710911805 -3.333200180673395 0.4089097530332664
head 9.339100593785133 -1.6483421518349508 0.03792359025581188
rclavicle 2.311361191625514E-15 -6.293100042543381E-16
rhumerus -32.36257302980854 -23.589558540153824 -76.78982557537243
rradius 24.46077745604409
rwrist 4.185891206393321
rhand -18.46226529992562 22.778825472327572
rfingers 7.125020000000021
rthumb 7.825947008297874 -7.110045432498211
lclavicle -7.259791381000196E-16 -2.6985071955345055E-16
lhumerus -35.510581929841514 5.728846389414112 81.3177245512812
lradius 22.725370272180548
lwrist 3.283184801526641
lhand -26.57719509843264 23.928013182642463
lfingers 7.125020000000034
lthumb 0.0027743409996450197 53.91275791127112
rfemur -23.379397255135707 -0.9776501978473826 22.86265677166144
rtibia 75.91384704345288
rfoot -0.6637978108512703 -7.219676345541684
rtoes 9.237038296832203
lfemur -4.050400515847441 -3.233613674920694 -25.46514422102331
ltibia 27.51628290901071
lfoot -14.66313848899707 0.6667404662422163
ltoes -4.233548321842463
7
root 0 0 0 -4.474335696269762 -2.2413102608562614 1.7334951529593616
lowerback 11.475858767547829 -0.0066817915908624625 -2.552310027614112
upperback 1.1902619048113408 -0.26199226016564237 0.8908970602984112
thorax -5.227297985366051 -0.048537674825876564 2.40817877800649
lowerneck -16.095283753472085 -2.452474566288804 -2.3006153687776982
upperneck 19.2096225566229 -2.872887112198827 0.4934217919870192
head 8.697551194751686 -1.4854081639432632 0.19047253468840086
rclavicle 3.3970768076240896E-15 -9.25569657916856E-16
rhumerus -32.14109672049095 -23.052691225758522 -76.83265771888757
rradius 24.975093386555685
rwrist 3.841546158421637
rhand -18.470610310035337 22.909361966537116
rfingers 7.125020000000022
rthumb 7.8168275078302365 -6.967207544662731
lclavicle -3.760152504474823E-16 -5.3192486313518615E-18
lhumerus -32.57012443388506 1.500859404582034 81.60978095636754
lradius 26.446751597521416
lwrist 5.194486124957768
lhand -27.113364028855564 24.77844745037029
lfingers 7.125020000000036
lthumb -0.5175565664631661 54.75344646998087
rfemur -29.544933845908208 -0.47198372180205084 21.066341189233526
rtibia 60.70246318180771
rfoot -7.204180398447356 -8.203284647470028
rtoes 4.057017024389691
lfemur 1.3015941956916093 -3.3347567804262703 -27.127258162292293
ltibia 24.87437136308243
lfoot -16.560858701966055 0.9226084013586653
ltoes -2.0102453570749006
8
root 0 0 0 -3.2988037419937752 -1.2015743695979113 2.6260593455554218
lowerback 10.85878535347584 -0.7518921737185414 -3.5918959022448114
upperback 0.9182709872353425 -1.3698615828475689 1.1178272213332507
thorax -5.045448068465283 -0.5684041441281589 3.4022279589059066
lowerneck -17.47359218049405 -2.3551604292077433 -2.579166284601667
upperneck 17.549255447736005 -2.6507384942402252 0.5020393575202566
head 8.344620992235093 -1.3994652610780494 0.25889847198107685
rclavicle 3.2287427169100835E-15 -1.3224906512088043E-15
rhumerus -31.992533846748078 -23.040939509002893 -76.61362644156054
rradius 25.302061731252223
rwrist 3.612172411530829
rhand -18.52490049396625 22.911643191416548
rfingers 7.125020000000023
rthumb 7.763945751053681 -6.972115090779482
lclavicle -2.2203530183154672E-16 -6.603889020564023E-16
lhumerus -28.52818196465029 -1.8257951063001159 81.47446600078781
lradius 29.024544060359965
lwrist 6.2959479273465515
lhand -27.646631096096954 25.452060803062157
lfingers 7.125020000000022
lthumb -1.0330235085290793 55.43087333772261
rfemur -31.78387101744111 0.241959117064805 20.359918672383067
rtibia 55.85409309513555
rfoot -7.241536427509673 -9.819080789877173
rtoes 1.8169513858413269
lfemur 5.559763823174809 -3.146574693465141 -28.542150514649236
ltibia 22.065858100132512
lfoot -17.5122096958211 0.6081480017451986
ltoes 0.6305478900663459
